# xmcd
#
# Track frame offsets: 
#        150
#        13932
#        32712
#        63909
#        79552
#        92339
#        103763
#        115710
#        131082
#        150792
#        162094
#        178299
#        187691
#        206626
#        235952
#        256960
#        272309
#        283534
#        306453
#
# Disc length: 4243 seconds
#
# Revision: 3
# Processed by: cddbd v1.5.2PL0 Copyright (c) Steve Scherf et al.
# Submitted via: ExactAudioCopy v0.99pb5
#
DISCID=f1109113
DTITLE=Various Artist - Pop Masters - Volume 4 - CD 3
DYEAR=2008
DGENRE=Pop
TTITLE0=Kingston Trio - Where have all the flowers gone
TTITLE1=Juice Newton - Angel of the morning
TTITLE2=Cockney Rebel - Sebastian
TTITLE3=UB40 - (I can't help) falling in love with you
TTITLE4=Classics IV - Spooky
TTITLE5=Paul Anka - (You're) having my baby
TTITLE6=Ricky Valance - Tell Laura I love her
TTITLE7=Flying Pickets - Only you
TTITLE8=Timmy Thomas - Why can't we live together
TTITLE9=Helen Shapiro - Walkin' back to happiness
TTITLE10=Ziggy Marley And The Melody Makers - Tomorrow people
TTITLE11=Frank Ifield - I remember you
TTITLE12=Kenny Rogers - She believes in me
TTITLE13=Jesus Loves You - Bow down Mister
TTITLE14=China Crisis - Wishful thinking
TTITLE15=Matt Monro - Softly as I leave you
TTITLE16=Dinah Washington - Fly me to the moon (in other words)
TTITLE17=Feargal Sharkey - You little thief
TTITLE18=Toys - A lover's concerto
EXTD=
EXTT0=
EXTT1=
EXTT2=
EXTT3=
EXTT4=
EXTT5=
EXTT6=
EXTT7=
EXTT8=
EXTT9=
EXTT10=
EXTT11=
EXTT12=
EXTT13=
EXTT14=
EXTT15=
EXTT16=
EXTT17=
EXTT18=
PLAYORDER=
